<svg xmlns="http://www.w3.org/2000/svg" xmlns:xlink="http://www.w3.org/1999/xlink" width="96.139" height="103.063" viewBox="0 0 96.139 103.063">
  <defs>
    <clipPath id="clip-path">
      <path id="路径_16575" data-name="路径 16575" d="M48.142,101.92a1.108,1.108,0,0,1-.369-.242.984.984,0,0,1-.188-.246,1.036,1.036,0,0,1-.1-.283,1.873,1.873,0,0,1-.042-.349c-.007-.131-.011-.282-.013-.453s0-.324,0-.454a2.179,2.179,0,0,1,.037-.351,1.108,1.108,0,0,1,.1-.284.987.987,0,0,1,.184-.249,1.08,1.08,0,0,1,.366-.25,1.384,1.384,0,0,1,.942-.014,1.105,1.105,0,0,1,.358.215,1.119,1.119,0,0,1,.246.319,1.387,1.387,0,0,1,.129.39l-.5.005a.774.774,0,0,0-.244-.417.686.686,0,0,0-.453-.143.649.649,0,0,0-.487.2.632.632,0,0,0-.1.144.786.786,0,0,0-.058.191,2.142,2.142,0,0,0-.025.278q0,.166,0,.41c0,.163.005.3.012.409a1.922,1.922,0,0,0,.03.279.8.8,0,0,0,.061.19.626.626,0,0,0,.1.141.644.644,0,0,0,.489.193.773.773,0,0,0,.3-.061.583.583,0,0,0,.236-.175.57.57,0,0,0,.124-.231,1.05,1.05,0,0,0,.032-.285l0-.185-.7.007L48.6,100.2l1.2-.012,0,.5a1.8,1.8,0,0,1-.061.536,1.025,1.025,0,0,1-.223.392,1.143,1.143,0,0,1-.41.286,1.284,1.284,0,0,1-.488.1h-.017A1.238,1.238,0,0,1,48.142,101.92Zm-1.807.035-.193-.669-1.292-.061-.257.646-.528-.025,1.355-3.215.4.019,1.041,3.329Zm-1.321-1.147,1.007.049-.436-1.477ZM50.6,98.639l.5-.027.176,3.272-.5.027Zm1.456-.078.453-.046,1.738,2.142-.232-2.293.494-.05.329,3.259-.453.047-1.738-2.141.232,2.293-.495.049Zm-9.288,3.164.25-2.176-.931,1.5-.367-.043-.586-1.674-.249,2.176-.493-.057.374-3.254.494.057.717,2.134,1.165-1.918.495.058-.375,3.254Zm13.505-3.677.4-.065,1.715,3.038-.521.086-.329-.613-1.277.21-.114.686-.522.086Zm.057,2.216.994-.164-.735-1.352Zm-17.525.921.541-3.231.49.082-.54,3.231Zm19.979-3.146-.882.19-.093-.437,2.248-.481.094.437-.883.189.592,2.767-.486.1Zm-23.3,2.471.3-1.313-.521-2.1.528.122.345,1.557.993-1.248.528.123-1.39,1.657-.3,1.313Zm25.222-3.371.481-.123L62,100.189l-.482.123ZM33.082,99.883l-1.273-.366.908-3.148,1.224.354a1.029,1.029,0,0,1,.629.43.837.837,0,0,1,.071.706.756.756,0,0,1-.1.226.847.847,0,0,1-.153.166.738.738,0,0,1-.178.107.591.591,0,0,1-.179.046.714.714,0,0,1,.148.151.85.85,0,0,1,.106.2.716.716,0,0,1,.045.239.876.876,0,0,1-.036.281,1.018,1.018,0,0,1-.183.363.8.8,0,0,1-.276.221.86.86,0,0,1-.35.084h-.043A1.308,1.308,0,0,1,33.082,99.883Zm-.671-.658.751.216a.54.54,0,0,0,.424-.023.494.494,0,0,0,.232-.309.488.488,0,0,0-.032-.383.54.54,0,0,0-.347-.243l-.751-.217Zm.4-1.388.707.2a.582.582,0,0,0,.4-.008.417.417,0,0,0,.239-.294.423.423,0,0,0-.044-.377.592.592,0,0,0-.338-.222l-.707-.2ZM63.6,99.688a1.135,1.135,0,0,1-.424-.129,1.02,1.02,0,0,1-.25-.184,1.134,1.134,0,0,1-.176-.241,2.28,2.28,0,0,1-.14-.325c-.04-.123-.086-.266-.137-.431s-.09-.31-.123-.436a1.959,1.959,0,0,1-.065-.346,1.068,1.068,0,0,1,.013-.3A1.007,1.007,0,0,1,62.409,97a1.115,1.115,0,0,1,.281-.343,1.248,1.248,0,0,1,.433-.22,1.275,1.275,0,0,1,.483-.058,1.126,1.126,0,0,1,.423.129,1.019,1.019,0,0,1,.25.184,1.143,1.143,0,0,1,.177.242,2.075,2.075,0,0,1,.138.323c.043.124.088.267.138.432s.092.31.126.436a2.165,2.165,0,0,1,.064.347,1.067,1.067,0,0,1-.014.3.974.974,0,0,1-.105.291,1.117,1.117,0,0,1-.282.343,1.273,1.273,0,0,1-.433.221,1.368,1.368,0,0,1-.388.061Q63.651,99.692,63.6,99.688Zm-.353-2.818a.642.642,0,0,0-.41.33.667.667,0,0,0-.054.165.815.815,0,0,0,0,.2,2.518,2.518,0,0,0,.056.274c.028.106.066.238.112.393s.089.285.124.388a2.357,2.357,0,0,0,.107.259.737.737,0,0,0,.113.165.6.6,0,0,0,.136.105.687.687,0,0,0,.933-.283.6.6,0,0,0,.054-.163.718.718,0,0,0,0-.2,1.859,1.859,0,0,0-.055-.275c-.026-.106-.064-.238-.111-.392s-.09-.287-.126-.391a2.2,2.2,0,0,0-.108-.26.641.641,0,0,0-.113-.166.608.608,0,0,0-.442-.187A.728.728,0,0,0,63.252,96.87Zm1.79-1.006.427-.158,2.222,1.633-.8-2.16.465-.174L68.5,98.076l-.428.157L65.846,96.6l.8,2.162-.466.172Zm-36.51,2.513-1.075-.409,1.164-3.062,1.076.409a1.293,1.293,0,0,1,.461.281,1.072,1.072,0,0,1,.262.437.965.965,0,0,1,.041.274,1.421,1.421,0,0,1-.029.291,2.416,2.416,0,0,1-.088.317c-.039.11-.082.226-.128.349s-.094.239-.137.347a2.821,2.821,0,0,1-.144.3,1.658,1.658,0,0,1-.172.238.927.927,0,0,1-.215.176,1.1,1.1,0,0,1-.484.154h-.045A1.378,1.378,0,0,1,28.532,98.377Zm-.452-.649.558.212a.937.937,0,0,0,.313.065.587.587,0,0,0,.291-.072.655.655,0,0,0,.269-.291,6.421,6.421,0,0,0,.427-1.127.663.663,0,0,0-.005-.4.619.619,0,0,0-.17-.247.9.9,0,0,0-.277-.158l-.56-.213Zm-3.409-.974,1.336-2.991,1.911.853-.182.408-1.458-.651-.39.874,1.243.554-.182.408-1.243-.554-.4.895,1.457.651-.182.407Zm46.132.082a.946.946,0,0,1-.552-.526.793.793,0,0,1-.08-.3.919.919,0,0,1,.027-.286,1.3,1.3,0,0,1,.1-.273c.045-.089.093-.175.142-.256-.052-.022-.107-.049-.165-.077a1.309,1.309,0,0,1-.169-.1.9.9,0,0,1-.155-.132.661.661,0,0,1-.121-.179.736.736,0,0,1-.073-.286.667.667,0,0,1,.047-.277.755.755,0,0,1,.161-.245.969.969,0,0,1,.275-.193.927.927,0,0,1,.311-.086.743.743,0,0,1,.29.034.658.658,0,0,1,.242.141.792.792,0,0,1,.175.239.573.573,0,0,1,.054.342.911.911,0,0,1-.122.331l-.146.252.978.447a.894.894,0,0,0,0-.31,1.7,1.7,0,0,0-.124-.36l.408-.193a2.162,2.162,0,0,1,.167.547,1.245,1.245,0,0,1-.027.5l.773.355-.545.259-.378-.177c-.021.044-.045.1-.076.153a1.181,1.181,0,0,1-.122.185,1.238,1.238,0,0,1-.191.193,1.34,1.34,0,0,1-.281.175,1.306,1.306,0,0,1-.556.143A.817.817,0,0,1,70.8,96.836Zm-.1-1.3a1.157,1.157,0,0,0-.069.18.586.586,0,0,0-.019.185.531.531,0,0,0,.057.2.519.519,0,0,0,.325.292.6.6,0,0,0,.449-.043.845.845,0,0,0,.458-.5l-1.1-.5C70.763,95.417,70.729,95.479,70.7,95.54Zm-.282-1.463a.3.3,0,0,0-.175.185.329.329,0,0,0,.021.245.387.387,0,0,0,.147.155,1.918,1.918,0,0,0,.277.143l.1-.162a.812.812,0,0,0,.088-.2.276.276,0,0,0-.018-.206.326.326,0,0,0-.181-.171.29.29,0,0,0-.105-.02A.354.354,0,0,0,70.418,94.076ZM23.337,96.1l.021-1.543-.551-.284L22.172,95.5l-.44-.228,1.5-2.91,1.13.582a1.165,1.165,0,0,1,.339.256.94.94,0,0,1,.194.323.844.844,0,0,1,.042.363,1.01,1.01,0,0,1-.113.373.838.838,0,0,1-.432.423.922.922,0,0,1-.548.05l.005,1.634ZM23,93.9l.654.338a.591.591,0,0,0,.418.066.54.54,0,0,0,.347-.671.584.584,0,0,0-.294-.306l-.655-.338Zm50.42-1.778.392-.23,2.472,1.22-1.168-1.987.429-.252,1.66,2.824-.393.23-2.474-1.22L75.507,94.7l-.427.252ZM19.065,93.732l1.67-2.819,1.8,1.066-.226.384-1.374-.814-.487.824,1.171.694-.227.384-1.172-.695-.5.843,1.372.814-.226.384Zm57.284-3.384.415-.272,1.791,2.743-.417.273ZM17.313,92.6l.751-2.27-1.847,1.517-.356-.244,1.149-3.185.433.3-.857,2.254,1.868-1.557.33.226L18,91.94l1.8-1.606.432.3-2.56,2.214Zm62.21-.773a1.035,1.035,0,0,1-.408-.146,1.139,1.139,0,0,1-.342-.323l-1.267-1.764.4-.289,1.252,1.745a.719.719,0,0,0,.453.316.744.744,0,0,0,.8-.576.711.711,0,0,0-.152-.532l-1.254-1.746.4-.289,1.265,1.764a1.161,1.161,0,0,1,.2.428,1.057,1.057,0,0,1,.005.435,1.176,1.176,0,0,1-.17.4,1.352,1.352,0,0,1-.755.542,1.121,1.121,0,0,1-.292.04A1.044,1.044,0,0,1,79.523,91.827Zm-65.386-1.6A1.252,1.252,0,0,1,13.712,90a1.23,1.23,0,0,1-.322-.364,1.1,1.1,0,0,1-.135-.422.986.986,0,0,1,.008-.311,1.089,1.089,0,0,1,.1-.283,2.034,2.034,0,0,1,.186-.3q.116-.158.277-.36c.107-.133.2-.251.287-.349a2.039,2.039,0,0,1,.248-.25,1.13,1.13,0,0,1,.254-.16.994.994,0,0,1,.3-.078,1.1,1.1,0,0,1,.44.036,1.21,1.21,0,0,1,.427.23,1.236,1.236,0,0,1,.323.365,1.123,1.123,0,0,1,.135.422,1.007,1.007,0,0,1-.008.31,1.133,1.133,0,0,1-.1.284,2.093,2.093,0,0,1-.187.3c-.077.105-.169.224-.275.359s-.2.252-.288.351a2.161,2.161,0,0,1-.248.249,1.114,1.114,0,0,1-.254.159,1,1,0,0,1-.3.08,1.184,1.184,0,0,1-.133.008A1.115,1.115,0,0,1,14.137,90.231ZM15,87.592a.587.587,0,0,0-.167.051.72.72,0,0,0-.165.112,1.831,1.831,0,0,0-.2.2c-.071.084-.158.188-.26.317s-.184.235-.248.323a2.28,2.28,0,0,0-.15.236.64.64,0,0,0-.072.185.612.612,0,0,0-.01.172.685.685,0,0,0,.763.607.623.623,0,0,0,.165-.049.719.719,0,0,0,.166-.11,2.042,2.042,0,0,0,.193-.2c.073-.083.159-.189.26-.316s.185-.236.25-.325a2.1,2.1,0,0,0,.152-.238.644.644,0,0,0,.072-.186.723.723,0,0,0,.01-.171.643.643,0,0,0-.259-.459.641.641,0,0,0-.5-.149Zm66.767,2.233.441-.347.347.442-.441.347Zm1.534-.9a1.064,1.064,0,0,1-.3-.067,1.119,1.119,0,0,1-.259-.151,2.065,2.065,0,0,1-.257-.24c-.088-.1-.188-.209-.3-.339s-.207-.247-.288-.348a2.076,2.076,0,0,1-.2-.291,1.122,1.122,0,0,1-.108-.281.98.98,0,0,1-.02-.309,1.09,1.09,0,0,1,.118-.427,1.27,1.27,0,0,1,.309-.376,1.169,1.169,0,0,1,.753-.3,1.212,1.212,0,0,1,.789.308l-.384.329a.772.772,0,0,0-.433-.166.7.7,0,0,0-.673.634.487.487,0,0,0,.016.175.788.788,0,0,0,.078.184,1.847,1.847,0,0,0,.158.23c.068.086.156.193.262.316s.2.225.272.306a1.723,1.723,0,0,0,.2.192.878.878,0,0,0,.168.106.519.519,0,0,0,.171.042.7.7,0,0,0,.731-.57.769.769,0,0,0-.1-.453l.385-.328a1.213,1.213,0,0,1,.181.829,1.161,1.161,0,0,1-.412.7,1.244,1.244,0,0,1-.419.247,1.114,1.114,0,0,1-.352.056Q83.344,88.932,83.3,88.929ZM10.507,87.224l2.184-2.441.924.828a1.149,1.149,0,0,1,.273.344,1.031,1.031,0,0,1,.109.376.891.891,0,0,1-.053.376,1.076,1.076,0,0,1-.208.344,1.054,1.054,0,0,1-.319.245.9.9,0,0,1-.365.093.969.969,0,0,1-.386-.067,1.2,1.2,0,0,1-.372-.234l-.554-.5-.863.963Zm1.528-.965.536.479a.613.613,0,0,0,.407.176.5.5,0,0,0,.386-.194.512.512,0,0,0,.152-.408.61.61,0,0,0-.219-.387l-.535-.478Zm73.639.576a1,1,0,0,1-.308-.05,1.073,1.073,0,0,1-.266-.134,2.093,2.093,0,0,1-.272-.225c-.092-.09-.2-.2-.32-.32s-.221-.234-.31-.331a2.192,2.192,0,0,1-.214-.279,1.08,1.08,0,0,1-.125-.274,1.02,1.02,0,0,1-.039-.307,1.088,1.088,0,0,1,.1-.432,1.231,1.231,0,0,1,.284-.393,1.26,1.26,0,0,1,.4-.272,1.14,1.14,0,0,1,.437-.078,1.029,1.029,0,0,1,.307.049,1.114,1.114,0,0,1,.267.135,2.154,2.154,0,0,1,.271.224q.14.136.32.321c.12.123.221.235.31.331a2.225,2.225,0,0,1,.215.279,1.137,1.137,0,0,1,.124.273,1.034,1.034,0,0,1,.039.308,1.147,1.147,0,0,1-.094.433,1.373,1.373,0,0,1-.688.664,1.121,1.121,0,0,1-.415.078ZM84.51,84.408a.65.65,0,0,0-.214.481.614.614,0,0,0,.029.172.715.715,0,0,0,.089.178,2.023,2.023,0,0,0,.174.22c.073.082.167.182.281.3s.207.212.286.288a2.108,2.108,0,0,0,.212.18.68.68,0,0,0,.176.1.581.581,0,0,0,.167.032.687.687,0,0,0,.7-.677.6.6,0,0,0-.026-.17.671.671,0,0,0-.088-.176,2.063,2.063,0,0,0-.173-.221c-.075-.082-.167-.182-.28-.3s-.209-.213-.29-.291a2.035,2.035,0,0,0-.214-.182.657.657,0,0,0-.176-.1A.606.606,0,0,0,85,84.213h-.027A.655.655,0,0,0,84.51,84.408ZM54.74,85.761a1.115,1.115,0,0,1-.378-.234,1.081,1.081,0,0,1-.254-.369,1.256,1.256,0,0,1-.093-.494V82.842a1.259,1.259,0,0,1,.093-.494,1.089,1.089,0,0,1,.254-.369,1.115,1.115,0,0,1,.378-.234,1.311,1.311,0,0,1,.458-.08,1.336,1.336,0,0,1,.464.08,1.124,1.124,0,0,1,.378.234,1.1,1.1,0,0,1,.255.369,1.259,1.259,0,0,1,.092.494v1.823a1.256,1.256,0,0,1-.092.494,1.1,1.1,0,0,1-.255.369,1.123,1.123,0,0,1-.378.234,1.336,1.336,0,0,1-.464.081A1.312,1.312,0,0,1,54.74,85.761Zm.023-3.384a.721.721,0,0,0-.159.482v1.789a.724.724,0,0,0,.159.481.6.6,0,0,0,.877,0,.719.719,0,0,0,.159-.481V82.859a.716.716,0,0,0-.159-.482.6.6,0,0,0-.877,0ZM43.827,85.735a1.4,1.4,0,0,1-.463-.309,1.266,1.266,0,0,1-.233-.312,1.382,1.382,0,0,1-.124-.354,2.571,2.571,0,0,1-.049-.438q-.008-.246-.008-.569t.008-.569a2.55,2.55,0,0,1,.049-.438,1.377,1.377,0,0,1,.124-.355,1.261,1.261,0,0,1,.233-.311,1.386,1.386,0,0,1,.463-.309,1.546,1.546,0,0,1,.6-.107,1.463,1.463,0,0,1,.964.326,1.519,1.519,0,0,1,.5.938h-.635a.946.946,0,0,0-.276-.511.876.876,0,0,0-1.159.056.61.61,0,0,0-.127.178,1.058,1.058,0,0,0-.076.239,2.477,2.477,0,0,0-.038.35q-.008.207-.008.513c0,.2,0,.374.008.513a2.478,2.478,0,0,0,.038.349,1.058,1.058,0,0,0,.076.239.61.61,0,0,0,.127.178.873.873,0,0,0,1.159.056.947.947,0,0,0,.276-.51h.635a1.5,1.5,0,0,1-.5.936,1.457,1.457,0,0,1-.96.328A1.563,1.563,0,0,1,43.827,85.735Zm-9.367-.014a1.73,1.73,0,0,1-.644-.422l.41-.409a1.247,1.247,0,0,0,.485.312,1.851,1.851,0,0,0,.571.085,1.046,1.046,0,0,0,.629-.163.556.556,0,0,0,.219-.471.533.533,0,0,0-.162-.427.838.838,0,0,0-.449-.173l-.485-.069a1.414,1.414,0,0,1-.773-.329,1.012,1.012,0,0,1-.305-.791,1.23,1.23,0,0,1,.095-.487A1.069,1.069,0,0,1,34.322,82a1.205,1.205,0,0,1,.43-.246,1.778,1.778,0,0,1,.576-.086,2.068,2.068,0,0,1,.713.109,1.669,1.669,0,0,1,.563.359l-.392.392a1.008,1.008,0,0,0-.415-.25,1.707,1.707,0,0,0-.491-.067.779.779,0,0,0-.553.178.6.6,0,0,0-.191.462.624.624,0,0,0,.034.213.379.379,0,0,0,.116.167.665.665,0,0,0,.181.112,1.214,1.214,0,0,0,.268.072l.49.076a2.136,2.136,0,0,1,.455.116.991.991,0,0,1,.307.189,1.09,1.09,0,0,1,.333.843,1.163,1.163,0,0,1-.108.508,1.1,1.1,0,0,1-.307.381,1.376,1.376,0,0,1-.467.237,2.1,2.1,0,0,1-.593.081A2.44,2.44,0,0,1,34.46,85.721Zm16.608.086v-.525l1.581-1.922a1.2,1.2,0,0,0,.167-.268.712.712,0,0,0,.051-.28.643.643,0,0,0-.156-.45.566.566,0,0,0-.444-.174.731.731,0,0,0-.225.035.536.536,0,0,0-.193.11.553.553,0,0,0-.136.2.759.759,0,0,0-.051.294h-.59a1.243,1.243,0,0,1,.09-.476,1.06,1.06,0,0,1,.248-.366,1.156,1.156,0,0,1,.377-.234,1.363,1.363,0,0,1,.48-.083,1.409,1.409,0,0,1,.484.08,1.037,1.037,0,0,1,.618.595,1.289,1.289,0,0,1,.085.479,1.008,1.008,0,0,1-.1.464,2.284,2.284,0,0,1-.288.424l-1.286,1.576h1.672v.525Zm10.38,0v-.617H59.785v-.547L61.233,81.7h.634l-1.442,2.943h1.021v-.958h.571v.958h.438v.547h-.438v.617Zm-3.365,0V82.339l-.8.7v-.652l.8-.693h.589v4.108Zm-11.475,0V81.7h2.626v.56h-2v1.2h1.708v.559H47.231v1.229h2v.559Zm-5.036,0-1.9-2.89v2.89h-.623V81.7h.571l1.9,2.891V81.7h.624v4.108Zm-4.1,0V81.7h.624v4.108Zm-30.32-.95a2.519,2.519,0,1,1,1.721.68A2.521,2.521,0,0,1,7.149,84.856Zm.22-3.245a2.06,2.06,0,1,0,1.5-.65A2.06,2.06,0,0,0,7.369,81.611ZM85.66,82.692l.334-.368,2.153.66-.878-2.065.333-.368,2.426,2.2-.334.368-1.622-1.472.675,1.632-.247.273-1.7-.5,1.623,1.472-.335.369ZM7.929,84.023a1.377,1.377,0,1,1,2.318-1.049l-.46.015a.92.92,0,0,0-.946-.887.916.916,0,0,0-.887.945.939.939,0,0,0,.946.887l.014.46H8.87A1.367,1.367,0,0,1,7.929,84.023ZM45,78.162a1.526,1.526,0,0,1-.491-.335,1.218,1.218,0,0,1-.242-.334,1.568,1.568,0,0,1-.128-.384,2.615,2.615,0,0,1-.046-.432c0-.152-.005-.315-.005-.488s0-.335.005-.488a2.647,2.647,0,0,1,.046-.433,1.569,1.569,0,0,1,.128-.384,1.245,1.245,0,0,1,.242-.334A1.537,1.537,0,0,1,45,74.216a1.648,1.648,0,0,1,.652-.116,1.848,1.848,0,0,1,.551.081,1.342,1.342,0,0,1,.462.248,1.392,1.392,0,0,1,.343.419,1.838,1.838,0,0,1,.2.59H46.172a.756.756,0,0,0-.161-.305A.457.457,0,0,0,45.647,75a.549.549,0,0,0-.239.049.432.432,0,0,0-.159.124.574.574,0,0,0-.112.27,2.51,2.51,0,0,0-.031.287c-.009.117-.013.269-.013.458s0,.342.013.458a2.491,2.491,0,0,0,.031.286.714.714,0,0,0,.049.167.751.751,0,0,0,.063.1.432.432,0,0,0,.159.124.549.549,0,0,0,.239.049.457.457,0,0,0,.364-.134.75.75,0,0,0,.161-.305H47.2a1.824,1.824,0,0,1-.2.59,1.369,1.369,0,0,1-.8.668,1.848,1.848,0,0,1-.551.081A1.664,1.664,0,0,1,45,78.162Zm-9.342.089a2.344,2.344,0,0,1-.41-.086,1.595,1.595,0,0,1-.7-.429l.646-.647a.871.871,0,0,0,.415.226,2.071,2.071,0,0,0,.5.064c.393,0,.588-.123.588-.371a.343.343,0,0,0-.08-.242.458.458,0,0,0-.271-.109l-.5-.069a1.4,1.4,0,0,1-.824-.363,1.134,1.134,0,0,1-.283-.826,1.283,1.283,0,0,1,.1-.519,1.183,1.183,0,0,1,.3-.409,1.393,1.393,0,0,1,.469-.271,1.9,1.9,0,0,1,.63-.1,2.461,2.461,0,0,1,.782.113,1.536,1.536,0,0,1,.6.377l-.634.635a.7.7,0,0,0-.347-.2,2.041,2.041,0,0,0-.433-.04.63.63,0,0,0-.224.035.465.465,0,0,0-.154.089.371.371,0,0,0-.089.121.341.341,0,0,0-.029.136.323.323,0,0,0,.017.093.257.257,0,0,0,.064.1.408.408,0,0,0,.107.076.477.477,0,0,0,.175.046l.5.069a1.381,1.381,0,0,1,.808.34.891.891,0,0,1,.236.387,1.722,1.722,0,0,1,.069.513,1.172,1.172,0,0,1-.127.555,1.214,1.214,0,0,1-.343.406,1.5,1.5,0,0,1-.5.247,2.184,2.184,0,0,1-.611.085A3.613,3.613,0,0,1,35.653,78.251Zm39.3-.009V77.2h1.039v1.039Zm-3.307,0V74.135h2.793v.9H72.66v.687h1.523v.9H72.66v.721h1.782v.9Zm-3.525,0V74.135h1.524a1.673,1.673,0,0,1,.793.172,1.415,1.415,0,0,1,.54.52,1.107,1.107,0,0,1,.115.251,1.671,1.671,0,0,1,.06.288,3.172,3.172,0,0,1,.023.357c0,.133,0,.288,0,.465s0,.331,0,.464a3.172,3.172,0,0,1-.023.357,1.682,1.682,0,0,1-.06.289,1.125,1.125,0,0,1-.115.251,1.412,1.412,0,0,1-.54.519,1.673,1.673,0,0,1-.793.172Zm1.011-.9h.444a.614.614,0,0,0,.3-.064.524.524,0,0,0,.182-.167.387.387,0,0,0,.049-.092.746.746,0,0,0,.035-.15c.009-.066.015-.152.019-.26s.006-.247.006-.42,0-.313-.006-.422a2.561,2.561,0,0,0-.019-.257.743.743,0,0,0-.035-.148.581.581,0,0,0-.049-.1.524.524,0,0,0-.182-.167.624.624,0,0,0-.3-.064h-.444Zm-2.735.9V74.135h1.01v4.107Zm-1.57,0L64.1,76.713h-.339v1.528H62.753V74.135H64.38a1.5,1.5,0,0,1,.6.113,1.276,1.276,0,0,1,.707.717,1.371,1.371,0,0,1,.092.491,1.14,1.14,0,0,1-.061.38,1.227,1.227,0,0,1-.155.307,1.248,1.248,0,0,1-.214.23,1.113,1.113,0,0,1-.239.155L66,78.242Zm-1.067-2.376h.571a.416.416,0,1,0,0-.832h-.571Zm-4.668,2.376V76.569l-1.24-2.434h1.1l.646,1.477.64-1.477h1.1L60.1,76.569v1.673Zm-4.43,0v-.783l1.576-2.425H54.734v-.9h2.717v.785l-1.58,2.423h1.58v.9Zm-1.113,0-.2-.611H52.1l-.2.611h-2.21l-.727-1.528h-.339v1.528H47.615V74.135h1.627a1.508,1.508,0,0,1,.6.113,1.3,1.3,0,0,1,.438.3,1.264,1.264,0,0,1,.268.42,1.353,1.353,0,0,1,.093.491,1.14,1.14,0,0,1-.061.38,1.226,1.226,0,0,1-.155.307,1.248,1.248,0,0,1-.214.23,1.135,1.135,0,0,1-.239.155l.878,1.694,1.487-4.087h.774l1.494,4.107Zm-1.178-1.454h.706l-.353-1.1Zm-3.749-.923H49.2a.415.415,0,0,0,.323-.127.416.416,0,0,0-.323-.7h-.571ZM41.7,78.242l-.2-.611H40.241l-.2.611H38.989l1.494-4.107h.774l1.494,4.107Zm-1.177-1.454h.7l-.353-1.1Zm-7.311,1.454V74.135h1.011v4.107Zm-4.557,0V74.135h2.793v.9H29.66v.687h1.524v.9H29.66v.721h1.783v.9Zm-3.324,0V74.135H28.12v.9H26.338v.722H27.86v.9H26.338v1.586Zm-1.724,0V74.135h1.01v4.107Zm-3.208,0V74.135H21.4v3.208H23.13v.9Zm1.375-9.68,25.421-9.706a.3.3,0,0,1,.4.37l-.389,1.643a.3.3,0,0,0,.388.375l17.572-5.211a.3.3,0,0,1,.385.384l-.5,2.327a.3.3,0,0,0,.363.39c2.225-.5,11.3-2.586,13.372-3.51,3.5-1.558,4.425-5.284-.37-5.724-.263-.024-2-.244-2.469-.344a7.167,7.167,0,0,1-1.106-.241c-.149.126-.309.255-.484.385C71.6,51.746,69.3,52.891,67.8,52.2h0a2.46,2.46,0,0,1-1.39-2.2.057.057,0,0,0-.1-.031c-5.4,5.094-8.794,4.572-8.794,4.572-1.786,0-3.361-1.781-3.6-4.163a.057.057,0,0,0-.109-.016,20.1,20.1,0,0,1-3.118,3.512c-.025.026-.049.056-.074.08a14.51,14.51,0,0,1-1.846,1.524c-.083.059-.156.108-.218.149l-.066.044c-.113.075-.176.113-.176.113v0c-2.017,1.263-3.905,1.584-5.143,1.016,0,0-1.63-.556-1.609-3.128a3.843,3.843,0,0,1,.075-.65.058.058,0,0,0-.111-.032c-1.867,3.156-4.471,5.38-6.317,6.095a10.008,10.008,0,0,1-2.909.544h0A2.984,2.984,0,0,1,29.21,57.1c-1.152-4.819,5.068-14.476,3.379-16.12-1.021-.994-2.789-1.112-5.562,3.619-4.574,7.8-5.876,17.565-6.611,19.143a5.176,5.176,0,0,1-5.969,2.278,3.281,3.281,0,0,1-1.513-1.2c-.024-.036-.049-.074-.071-.111l-.007-.012a3.488,3.488,0,0,1-.23-.444c-1.09-2.5,3.955-11.04,6.509-16.484L21.281,43.7c1.235-2.481-.521-1.2-.545-1.178h0c-1.382,1.146-4.439,4.812-6.617,6.061a2.534,2.534,0,0,1-1.934.307,1.591,1.591,0,0,1-1.132-1.058h0a7.78,7.78,0,0,1-.166-2.943,2.582,2.582,0,0,1,2.152-2.151,20.453,20.453,0,0,0,7.422-3.793l0,0c1.693-1.426,2.932-2.593,4.962-2.516a2.668,2.668,0,0,1,1.557.5,1.333,1.333,0,0,1,.393.425,1.8,1.8,0,0,1,.273.578,3.966,3.966,0,0,1,.055.766c0,.167.289.3.442.231a11.276,11.276,0,0,0,1.011-.517c3.119-1.958,4.514-2.5,6.619-2.5.128,0,.251,0,.372.015h0a5.109,5.109,0,0,1,1.907.733c1.688,1.532.643,3.9-.255,6.089-2.191,5.351-3.963,10.407-2,11.291,1.731.781,5.789-4.3,7.222-8.171l.554-1.431c.509-1.413.961-4.3,1.663-5.8,1.391-2.979,2.869-3.248,4.289-3.4a3.5,3.5,0,0,1,1.157.066c1.006.16,1.967,1.17.534,4.108-.8,1.643-2.246,6.05-3.336,9.21-.205.74-1.333,4.973,1.8,2.575.365-.292.75-.625,1.146-.983a15.6,15.6,0,0,0,3.29-5.327c.12-.3.246-.611.375-.941.579-1.472.665-1.982,1.183-3.56.739-2.249,1.291-3.6,1.291-3.6a3.457,3.457,0,0,1,2.66-2.111c1.55-.317,3.046.052,3.413.763l.008.014a.748.748,0,0,1,.076.262A5.1,5.1,0,0,1,62.182,39a25.8,25.8,0,0,0-2.91,8.431c-.024.185-.045.367-.06.545.009.656.328,1.659,2.241,1.481a6.926,6.926,0,0,0,4.52-2.667,32.518,32.518,0,0,0,1.956-5.414q.134-.481.266-.926l0,0a22,22,0,0,1,1.256-3.635c1.226-2.624,2.527-2.861,3.778-2.993a3.087,3.087,0,0,1,1.019.057c.887.141,1.733,1.031.47,3.618A59.759,59.759,0,0,0,71.841,44.2c-.179.648-1.368,6.193,1.321,4.2a1.534,1.534,0,0,1-.444-1.272,2.075,2.075,0,0,1,2.272-1.949c1.778,0,1.619,1.422,1.619,1.422a2.837,2.837,0,0,1-.708,1.625,9.7,9.7,0,0,0,1.143.108c2.779.23,3.215.02,5.059.453a3.618,3.618,0,0,1,.834.3A4.077,4.077,0,0,1,85.4,53.4s-.946,5.3-12.694,8.674c0,0-13.782,4.538-15.978,5.072a.3.3,0,0,1-.369-.38l.491-2.507a.3.3,0,0,0-.373-.38l-15.8,3.948a.3.3,0,0,1-.376-.359l.284-1.719a.3.3,0,0,0-.358-.364L21.82,68.893a.2.2,0,0,1-.037,0C21.607,68.9,21.578,68.629,21.769,68.561ZM74.5,46.028c-.535.076-1.2.781-.163,1.591a3.464,3.464,0,0,0,.627-.786c.313-.555.012-.814-.351-.814A.8.8,0,0,0,74.5,46.028ZM0,26.56l.722-1.139,10.893,3.911L10.75,30.7l-2.306-.9L7.263,31.666l1.8,1.7-.867,1.367Zm3.1,1.19L6.13,30.61,7,29.243l-3.883-1.52ZM84.86,31.621l-1.211-1.9,9.523-6.071,1.287,2.019a2.626,2.626,0,0,1-.934,3.964l-4.453,2.84a3.588,3.588,0,0,1-1.9.649A2.754,2.754,0,0,1,84.86,31.621Zm.942-1.354.4.629c.487.762,1.049.817,1.865.3l4.587-2.926c.748-.477,1.015-1,.5-1.806l-.4-.629Zm-37.286-.434c.014-1.442,2.23-3.5,4.216-3.713a2.751,2.751,0,0,1,2.976,2.952c-.015,1.442-2.446,3.105-4.432,3.316a3.839,3.839,0,0,1-.4.022A2.285,2.285,0,0,1,48.516,29.833Zm33.7-1.905,2.669-4.289-.632-.734L80.6,26.054l-1.057-1.227L88.1,17.456l1.7,1.971c1.252,1.454,1.01,2.9-.648,4.326a2.881,2.881,0,0,1-3.05.786l-2.767,4.686Zm3.119-5.953.6.7c.734.852,1.33.57,2.183-.165s1.21-1.293.433-2.2L88,19.676ZM5.514,18.995,6.6,17.88l6.58,3,.023-.022L8.324,16.108l1.129-1.16,8.093,7.879-1.062,1.092L9.893,20.955l-.022.023,4.864,4.736-1.129,1.159Zm72.535,4.43,1.239-2.14L77.63,19.832l-1.956,1.513-1.218-1.065,9.335-6.839,1.015.888-5.54,10.16Zm.8-4.55,1.217,1.066,2.1-3.6-.024-.022Zm-67.531-5.49,1.248-1.031,7.187,8.708-1.247,1.03Zm60.964,5.472,2.843-6.868-.026-.016-4.927,5.562-1.29-.809L73.453,6.26l1.452.911-3.122,6.505.027.017,4.883-5.4,1.048.656-2.784,6.924.027.017,4.558-5.811,1.452.909-7.421,8.679Zm-52.93-.77L14.527,10.78l1.349-.891,4.739,7.173a1.012,1.012,0,1,0,1.668-1.1L17.544,8.788,18.895,7.9l4.825,7.3a2.617,2.617,0,1,1-4.368,2.885Zm46.454-2.794.506-5.027-.891-.379-1.89,4.434-1.49-.635L66.472,3.3l2.392,1.02c1.765.752,2.185,2.156,1.327,4.17A2.878,2.878,0,0,1,67.8,10.538l-.416,5.426Zm.176-6.719.846.361c1.036.44,1.445-.074,1.887-1.111s.516-1.694-.58-2.161l-.773-.329ZM24.168,5l1.608-.589L29,10.866l.03-.011L27.757,3.687l1.161-.426,3.761,6.444.03-.012L30.914,2.531l1.609-.589,2.3,11.183-1.431.524-3.68-6.456-.03.01,1.373,7.3-1.431.525Zm34.195,7.8a2.649,2.649,0,0,1-1.954-3.342l1.46-5.784a2.713,2.713,0,1,1,5.26,1.329l-1.46,5.785a2.62,2.62,0,0,1-2.6,2.1A2.879,2.879,0,0,1,58.362,12.8Zm1.075-8.73L57.977,9.86A1.1,1.1,0,1,0,60.1,10.4l1.461-5.784a1.046,1.046,0,0,0-.783-1.376,1.29,1.29,0,0,0-.316-.041A1.038,1.038,0,0,0,59.437,4.073ZM36.152,1.238l1.324-.26,4.648,10.6-1.588.312L39.6,9.6l-2.164.425v2.473l-1.588.311ZM37.416,4.3l.01,4.167,1.588-.311L37.447,4.3ZM50.363,11.4,51.636.175l4.792.545-.172,1.512-3.184-.36-.386,3.4,2.774.314L55.289,7.1l-2.774-.315-.544,4.792ZM42.9,6.8,40.183.473,41.891.339l1.647,4.374.031,0L44.515.133,46.223,0,44.518,6.673l.373,4.759-1.613.127Z" transform="translate(0 -0.001)" fill="#999" stroke="rgba(0,0,0,0)" stroke-width="1"/>
    </clipPath>
  </defs>
  <g id="组件_33_1" data-name="组件 33 – 1" transform="translate(0.637 0.552)">
    <path id="路径_16576" data-name="路径 16576" d="M48.142,101.92a1.108,1.108,0,0,1-.369-.242.984.984,0,0,1-.188-.246,1.036,1.036,0,0,1-.1-.283,1.873,1.873,0,0,1-.042-.349c-.007-.131-.011-.282-.013-.453s0-.324,0-.454a2.179,2.179,0,0,1,.037-.351,1.108,1.108,0,0,1,.1-.284.987.987,0,0,1,.184-.249,1.08,1.08,0,0,1,.366-.25,1.384,1.384,0,0,1,.942-.014,1.105,1.105,0,0,1,.358.215,1.119,1.119,0,0,1,.246.319,1.387,1.387,0,0,1,.129.39l-.5.005a.774.774,0,0,0-.244-.417.686.686,0,0,0-.453-.143.649.649,0,0,0-.487.2.632.632,0,0,0-.1.144.786.786,0,0,0-.058.191,2.142,2.142,0,0,0-.025.278q0,.166,0,.41c0,.163.005.3.012.409a1.922,1.922,0,0,0,.03.279.8.8,0,0,0,.061.19.626.626,0,0,0,.1.141.644.644,0,0,0,.489.193.773.773,0,0,0,.3-.061.583.583,0,0,0,.236-.175.57.57,0,0,0,.124-.231,1.05,1.05,0,0,0,.032-.285l0-.185-.7.007L48.6,100.2l1.2-.012,0,.5a1.8,1.8,0,0,1-.061.536,1.025,1.025,0,0,1-.223.392,1.143,1.143,0,0,1-.41.286,1.284,1.284,0,0,1-.488.1h-.017A1.238,1.238,0,0,1,48.142,101.92Zm-1.807.035-.193-.669-1.292-.061-.257.646-.528-.025,1.355-3.215.4.019,1.041,3.329Zm-1.321-1.147,1.007.049-.436-1.477ZM50.6,98.639l.5-.027.176,3.272-.5.027Zm1.456-.078.453-.046,1.738,2.142-.232-2.293.494-.05.329,3.259-.453.047-1.738-2.141.232,2.293-.495.049Zm-9.288,3.164.25-2.176-.931,1.5-.367-.043-.586-1.674-.249,2.176-.493-.057.374-3.254.494.057.717,2.134,1.165-1.918.495.058-.375,3.254Zm13.505-3.677.4-.065,1.715,3.038-.521.086-.329-.613-1.277.21-.114.686-.522.086Zm.057,2.216.994-.164-.735-1.352Zm-17.525.921.541-3.231.49.082-.54,3.231Zm19.979-3.146-.882.19-.093-.437,2.248-.481.094.437-.883.189.592,2.767-.486.1Zm-23.3,2.471.3-1.313-.521-2.1.528.122.345,1.557.993-1.248.528.123-1.39,1.657-.3,1.313Zm25.222-3.371.481-.123L62,100.189l-.482.123ZM33.082,99.883l-1.273-.366.908-3.148,1.224.354a1.029,1.029,0,0,1,.629.43.837.837,0,0,1,.071.706.756.756,0,0,1-.1.226.847.847,0,0,1-.153.166.738.738,0,0,1-.178.107.591.591,0,0,1-.179.046.714.714,0,0,1,.148.151.85.85,0,0,1,.106.2.716.716,0,0,1,.045.239.876.876,0,0,1-.036.281,1.018,1.018,0,0,1-.183.363.8.8,0,0,1-.276.221.86.86,0,0,1-.35.084h-.043A1.308,1.308,0,0,1,33.082,99.883Zm-.671-.658.751.216a.54.54,0,0,0,.424-.023.494.494,0,0,0,.232-.309.488.488,0,0,0-.032-.383.54.54,0,0,0-.347-.243l-.751-.217Zm.4-1.388.707.2a.582.582,0,0,0,.4-.008.417.417,0,0,0,.239-.294.423.423,0,0,0-.044-.377.592.592,0,0,0-.338-.222l-.707-.2ZM63.6,99.688a1.135,1.135,0,0,1-.424-.129,1.02,1.02,0,0,1-.25-.184,1.134,1.134,0,0,1-.176-.241,2.28,2.28,0,0,1-.14-.325c-.04-.123-.086-.266-.137-.431s-.09-.31-.123-.436a1.959,1.959,0,0,1-.065-.346,1.068,1.068,0,0,1,.013-.3A1.007,1.007,0,0,1,62.409,97a1.115,1.115,0,0,1,.281-.343,1.248,1.248,0,0,1,.433-.22,1.275,1.275,0,0,1,.483-.058,1.126,1.126,0,0,1,.423.129,1.019,1.019,0,0,1,.25.184,1.143,1.143,0,0,1,.177.242,2.075,2.075,0,0,1,.138.323c.043.124.088.267.138.432s.092.31.126.436a2.165,2.165,0,0,1,.064.347,1.067,1.067,0,0,1-.014.3.974.974,0,0,1-.105.291,1.117,1.117,0,0,1-.282.343,1.273,1.273,0,0,1-.433.221,1.368,1.368,0,0,1-.388.061Q63.651,99.692,63.6,99.688Zm-.353-2.818a.642.642,0,0,0-.41.33.667.667,0,0,0-.054.165.815.815,0,0,0,0,.2,2.518,2.518,0,0,0,.056.274c.028.106.066.238.112.393s.089.285.124.388a2.357,2.357,0,0,0,.107.259.737.737,0,0,0,.113.165.6.6,0,0,0,.136.105.687.687,0,0,0,.933-.283.6.6,0,0,0,.054-.163.718.718,0,0,0,0-.2,1.859,1.859,0,0,0-.055-.275c-.026-.106-.064-.238-.111-.392s-.09-.287-.126-.391a2.2,2.2,0,0,0-.108-.26.641.641,0,0,0-.113-.166.608.608,0,0,0-.442-.187A.728.728,0,0,0,63.252,96.87Zm1.79-1.006.427-.158,2.222,1.633-.8-2.16.465-.174L68.5,98.076l-.428.157L65.846,96.6l.8,2.162-.466.172Zm-36.51,2.513-1.075-.409,1.164-3.062,1.076.409a1.293,1.293,0,0,1,.461.281,1.072,1.072,0,0,1,.262.437.965.965,0,0,1,.041.274,1.421,1.421,0,0,1-.029.291,2.416,2.416,0,0,1-.088.317c-.039.11-.082.226-.128.349s-.094.239-.137.347a2.821,2.821,0,0,1-.144.3,1.658,1.658,0,0,1-.172.238.927.927,0,0,1-.215.176,1.1,1.1,0,0,1-.484.154h-.045A1.378,1.378,0,0,1,28.532,98.377Zm-.452-.649.558.212a.937.937,0,0,0,.313.065.587.587,0,0,0,.291-.072.655.655,0,0,0,.269-.291,6.421,6.421,0,0,0,.427-1.127.663.663,0,0,0-.005-.4.619.619,0,0,0-.17-.247.9.9,0,0,0-.277-.158l-.56-.213Zm-3.409-.974,1.336-2.991,1.911.853-.182.408-1.458-.651-.39.874,1.243.554-.182.408-1.243-.554-.4.895,1.457.651-.182.407Zm46.132.082a.946.946,0,0,1-.552-.526.793.793,0,0,1-.08-.3.919.919,0,0,1,.027-.286,1.3,1.3,0,0,1,.1-.273c.045-.089.093-.175.142-.256-.052-.022-.107-.049-.165-.077a1.309,1.309,0,0,1-.169-.1.9.9,0,0,1-.155-.132.661.661,0,0,1-.121-.179.736.736,0,0,1-.073-.286.667.667,0,0,1,.047-.277.755.755,0,0,1,.161-.245.969.969,0,0,1,.275-.193.927.927,0,0,1,.311-.086.743.743,0,0,1,.29.034.658.658,0,0,1,.242.141.792.792,0,0,1,.175.239.573.573,0,0,1,.054.342.911.911,0,0,1-.122.331l-.146.252.978.447a.894.894,0,0,0,0-.31,1.7,1.7,0,0,0-.124-.36l.408-.193a2.162,2.162,0,0,1,.167.547,1.245,1.245,0,0,1-.027.5l.773.355-.545.259-.378-.177c-.021.044-.045.1-.076.153a1.181,1.181,0,0,1-.122.185,1.238,1.238,0,0,1-.191.193,1.34,1.34,0,0,1-.281.175,1.306,1.306,0,0,1-.556.143A.817.817,0,0,1,70.8,96.836Zm-.1-1.3a1.157,1.157,0,0,0-.069.18.586.586,0,0,0-.019.185.531.531,0,0,0,.057.2.519.519,0,0,0,.325.292.6.6,0,0,0,.449-.043.845.845,0,0,0,.458-.5l-1.1-.5C70.763,95.417,70.729,95.479,70.7,95.54Zm-.282-1.463a.3.3,0,0,0-.175.185.329.329,0,0,0,.021.245.387.387,0,0,0,.147.155,1.918,1.918,0,0,0,.277.143l.1-.162a.812.812,0,0,0,.088-.2.276.276,0,0,0-.018-.206.326.326,0,0,0-.181-.171.29.29,0,0,0-.105-.02A.354.354,0,0,0,70.418,94.076ZM23.337,96.1l.021-1.543-.551-.284L22.172,95.5l-.44-.228,1.5-2.91,1.13.582a1.165,1.165,0,0,1,.339.256.94.94,0,0,1,.194.323.844.844,0,0,1,.042.363,1.01,1.01,0,0,1-.113.373.838.838,0,0,1-.432.423.922.922,0,0,1-.548.05l.005,1.634ZM23,93.9l.654.338a.591.591,0,0,0,.418.066.54.54,0,0,0,.347-.671.584.584,0,0,0-.294-.306l-.655-.338Zm50.42-1.778.392-.23,2.472,1.22-1.168-1.987.429-.252,1.66,2.824-.393.23-2.474-1.22L75.507,94.7l-.427.252ZM19.065,93.732l1.67-2.819,1.8,1.066-.226.384-1.374-.814-.487.824,1.171.694-.227.384-1.172-.695-.5.843,1.372.814-.226.384Zm57.284-3.384.415-.272,1.791,2.743-.417.273ZM17.313,92.6l.751-2.27-1.847,1.517-.356-.244,1.149-3.185.433.3-.857,2.254,1.868-1.557.33.226L18,91.94l1.8-1.606.432.3-2.56,2.214Zm62.21-.773a1.035,1.035,0,0,1-.408-.146,1.139,1.139,0,0,1-.342-.323l-1.267-1.764.4-.289,1.252,1.745a.719.719,0,0,0,.453.316.744.744,0,0,0,.8-.576.711.711,0,0,0-.152-.532l-1.254-1.746.4-.289,1.265,1.764a1.161,1.161,0,0,1,.2.428,1.057,1.057,0,0,1,.005.435,1.176,1.176,0,0,1-.17.4,1.352,1.352,0,0,1-.755.542,1.121,1.121,0,0,1-.292.04A1.044,1.044,0,0,1,79.523,91.827Zm-65.386-1.6A1.252,1.252,0,0,1,13.712,90a1.23,1.23,0,0,1-.322-.364,1.1,1.1,0,0,1-.135-.422.986.986,0,0,1,.008-.311,1.089,1.089,0,0,1,.1-.283,2.034,2.034,0,0,1,.186-.3q.116-.158.277-.36c.107-.133.2-.251.287-.349a2.039,2.039,0,0,1,.248-.25,1.13,1.13,0,0,1,.254-.16.994.994,0,0,1,.3-.078,1.1,1.1,0,0,1,.44.036,1.21,1.21,0,0,1,.427.23,1.236,1.236,0,0,1,.323.365,1.123,1.123,0,0,1,.135.422,1.007,1.007,0,0,1-.008.31,1.133,1.133,0,0,1-.1.284,2.093,2.093,0,0,1-.187.3c-.077.105-.169.224-.275.359s-.2.252-.288.351a2.161,2.161,0,0,1-.248.249,1.114,1.114,0,0,1-.254.159,1,1,0,0,1-.3.08,1.184,1.184,0,0,1-.133.008A1.115,1.115,0,0,1,14.137,90.231ZM15,87.592a.587.587,0,0,0-.167.051.72.72,0,0,0-.165.112,1.831,1.831,0,0,0-.2.2c-.071.084-.158.188-.26.317s-.184.235-.248.323a2.28,2.28,0,0,0-.15.236.64.64,0,0,0-.072.185.612.612,0,0,0-.01.172.685.685,0,0,0,.763.607.623.623,0,0,0,.165-.049.719.719,0,0,0,.166-.11,2.042,2.042,0,0,0,.193-.2c.073-.083.159-.189.26-.316s.185-.236.25-.325a2.1,2.1,0,0,0,.152-.238.644.644,0,0,0,.072-.186.723.723,0,0,0,.01-.171.643.643,0,0,0-.259-.459.641.641,0,0,0-.5-.149Zm66.767,2.233.441-.347.347.442-.441.347Zm1.534-.9a1.064,1.064,0,0,1-.3-.067,1.119,1.119,0,0,1-.259-.151,2.065,2.065,0,0,1-.257-.24c-.088-.1-.188-.209-.3-.339s-.207-.247-.288-.348a2.076,2.076,0,0,1-.2-.291,1.122,1.122,0,0,1-.108-.281.98.98,0,0,1-.02-.309,1.09,1.09,0,0,1,.118-.427,1.27,1.27,0,0,1,.309-.376,1.169,1.169,0,0,1,.753-.3,1.212,1.212,0,0,1,.789.308l-.384.329a.772.772,0,0,0-.433-.166.7.7,0,0,0-.673.634.487.487,0,0,0,.016.175.788.788,0,0,0,.078.184,1.847,1.847,0,0,0,.158.23c.068.086.156.193.262.316s.2.225.272.306a1.723,1.723,0,0,0,.2.192.878.878,0,0,0,.168.106.519.519,0,0,0,.171.042.7.7,0,0,0,.731-.57.769.769,0,0,0-.1-.453l.385-.328a1.213,1.213,0,0,1,.181.829,1.161,1.161,0,0,1-.412.7,1.244,1.244,0,0,1-.419.247,1.114,1.114,0,0,1-.352.056Q83.344,88.932,83.3,88.929ZM10.507,87.224l2.184-2.441.924.828a1.149,1.149,0,0,1,.273.344,1.031,1.031,0,0,1,.109.376.891.891,0,0,1-.053.376,1.076,1.076,0,0,1-.208.344,1.054,1.054,0,0,1-.319.245.9.9,0,0,1-.365.093.969.969,0,0,1-.386-.067,1.2,1.2,0,0,1-.372-.234l-.554-.5-.863.963Zm1.528-.965.536.479a.613.613,0,0,0,.407.176.5.5,0,0,0,.386-.194.512.512,0,0,0,.152-.408.61.61,0,0,0-.219-.387l-.535-.478Zm73.639.576a1,1,0,0,1-.308-.05,1.073,1.073,0,0,1-.266-.134,2.093,2.093,0,0,1-.272-.225c-.092-.09-.2-.2-.32-.32s-.221-.234-.31-.331a2.192,2.192,0,0,1-.214-.279,1.08,1.08,0,0,1-.125-.274,1.02,1.02,0,0,1-.039-.307,1.088,1.088,0,0,1,.1-.432,1.231,1.231,0,0,1,.284-.393,1.26,1.26,0,0,1,.4-.272,1.14,1.14,0,0,1,.437-.078,1.029,1.029,0,0,1,.307.049,1.114,1.114,0,0,1,.267.135,2.154,2.154,0,0,1,.271.224q.14.136.32.321c.12.123.221.235.31.331a2.225,2.225,0,0,1,.215.279,1.137,1.137,0,0,1,.124.273,1.034,1.034,0,0,1,.039.308,1.147,1.147,0,0,1-.094.433,1.373,1.373,0,0,1-.688.664,1.121,1.121,0,0,1-.415.078ZM84.51,84.408a.65.65,0,0,0-.214.481.614.614,0,0,0,.029.172.715.715,0,0,0,.089.178,2.023,2.023,0,0,0,.174.22c.073.082.167.182.281.3s.207.212.286.288a2.108,2.108,0,0,0,.212.18.68.68,0,0,0,.176.1.581.581,0,0,0,.167.032.687.687,0,0,0,.7-.677.6.6,0,0,0-.026-.17.671.671,0,0,0-.088-.176,2.063,2.063,0,0,0-.173-.221c-.075-.082-.167-.182-.28-.3s-.209-.213-.29-.291a2.035,2.035,0,0,0-.214-.182.657.657,0,0,0-.176-.1A.606.606,0,0,0,85,84.213h-.027A.655.655,0,0,0,84.51,84.408ZM54.74,85.761a1.115,1.115,0,0,1-.378-.234,1.081,1.081,0,0,1-.254-.369,1.256,1.256,0,0,1-.093-.494V82.842a1.259,1.259,0,0,1,.093-.494,1.089,1.089,0,0,1,.254-.369,1.115,1.115,0,0,1,.378-.234,1.311,1.311,0,0,1,.458-.08,1.336,1.336,0,0,1,.464.08,1.124,1.124,0,0,1,.378.234,1.1,1.1,0,0,1,.255.369,1.259,1.259,0,0,1,.092.494v1.823a1.256,1.256,0,0,1-.092.494,1.1,1.1,0,0,1-.255.369,1.123,1.123,0,0,1-.378.234,1.336,1.336,0,0,1-.464.081A1.312,1.312,0,0,1,54.74,85.761Zm.023-3.384a.721.721,0,0,0-.159.482v1.789a.724.724,0,0,0,.159.481.6.6,0,0,0,.877,0,.719.719,0,0,0,.159-.481V82.859a.716.716,0,0,0-.159-.482.6.6,0,0,0-.877,0ZM43.827,85.735a1.4,1.4,0,0,1-.463-.309,1.266,1.266,0,0,1-.233-.312,1.382,1.382,0,0,1-.124-.354,2.571,2.571,0,0,1-.049-.438q-.008-.246-.008-.569t.008-.569a2.55,2.55,0,0,1,.049-.438,1.377,1.377,0,0,1,.124-.355,1.261,1.261,0,0,1,.233-.311,1.386,1.386,0,0,1,.463-.309,1.546,1.546,0,0,1,.6-.107,1.463,1.463,0,0,1,.964.326,1.519,1.519,0,0,1,.5.938h-.635a.946.946,0,0,0-.276-.511.876.876,0,0,0-1.159.056.61.61,0,0,0-.127.178,1.058,1.058,0,0,0-.076.239,2.477,2.477,0,0,0-.038.35q-.008.207-.008.513c0,.2,0,.374.008.513a2.478,2.478,0,0,0,.038.349,1.058,1.058,0,0,0,.076.239.61.61,0,0,0,.127.178.873.873,0,0,0,1.159.056.947.947,0,0,0,.276-.51h.635a1.5,1.5,0,0,1-.5.936,1.457,1.457,0,0,1-.96.328A1.563,1.563,0,0,1,43.827,85.735Zm-9.367-.014a1.73,1.73,0,0,1-.644-.422l.41-.409a1.247,1.247,0,0,0,.485.312,1.851,1.851,0,0,0,.571.085,1.046,1.046,0,0,0,.629-.163.556.556,0,0,0,.219-.471.533.533,0,0,0-.162-.427.838.838,0,0,0-.449-.173l-.485-.069a1.414,1.414,0,0,1-.773-.329,1.012,1.012,0,0,1-.305-.791,1.23,1.23,0,0,1,.095-.487A1.069,1.069,0,0,1,34.322,82a1.205,1.205,0,0,1,.43-.246,1.778,1.778,0,0,1,.576-.086,2.068,2.068,0,0,1,.713.109,1.669,1.669,0,0,1,.563.359l-.392.392a1.008,1.008,0,0,0-.415-.25,1.707,1.707,0,0,0-.491-.067.779.779,0,0,0-.553.178.6.6,0,0,0-.191.462.624.624,0,0,0,.034.213.379.379,0,0,0,.116.167.665.665,0,0,0,.181.112,1.214,1.214,0,0,0,.268.072l.49.076a2.136,2.136,0,0,1,.455.116.991.991,0,0,1,.307.189,1.09,1.09,0,0,1,.333.843,1.163,1.163,0,0,1-.108.508,1.1,1.1,0,0,1-.307.381,1.376,1.376,0,0,1-.467.237,2.1,2.1,0,0,1-.593.081A2.44,2.44,0,0,1,34.46,85.721Zm16.608.086v-.525l1.581-1.922a1.2,1.2,0,0,0,.167-.268.712.712,0,0,0,.051-.28.643.643,0,0,0-.156-.45.566.566,0,0,0-.444-.174.731.731,0,0,0-.225.035.536.536,0,0,0-.193.11.553.553,0,0,0-.136.2.759.759,0,0,0-.051.294h-.59a1.243,1.243,0,0,1,.09-.476,1.06,1.06,0,0,1,.248-.366,1.156,1.156,0,0,1,.377-.234,1.363,1.363,0,0,1,.48-.083,1.409,1.409,0,0,1,.484.08,1.037,1.037,0,0,1,.618.595,1.289,1.289,0,0,1,.085.479,1.008,1.008,0,0,1-.1.464,2.284,2.284,0,0,1-.288.424l-1.286,1.576h1.672v.525Zm10.38,0v-.617H59.785v-.547L61.233,81.7h.634l-1.442,2.943h1.021v-.958h.571v.958h.438v.547h-.438v.617Zm-3.365,0V82.339l-.8.7v-.652l.8-.693h.589v4.108Zm-11.475,0V81.7h2.626v.56h-2v1.2h1.708v.559H47.231v1.229h2v.559Zm-5.036,0-1.9-2.89v2.89h-.623V81.7h.571l1.9,2.891V81.7h.624v4.108Zm-4.1,0V81.7h.624v4.108Zm-30.32-.95a2.519,2.519,0,1,1,1.721.68A2.521,2.521,0,0,1,7.149,84.856Zm.22-3.245a2.06,2.06,0,1,0,1.5-.65A2.06,2.06,0,0,0,7.369,81.611ZM85.66,82.692l.334-.368,2.153.66-.878-2.065.333-.368,2.426,2.2-.334.368-1.622-1.472.675,1.632-.247.273-1.7-.5,1.623,1.472-.335.369ZM7.929,84.023a1.377,1.377,0,1,1,2.318-1.049l-.46.015a.92.92,0,0,0-.946-.887.916.916,0,0,0-.887.945.939.939,0,0,0,.946.887l.014.46H8.87A1.367,1.367,0,0,1,7.929,84.023ZM45,78.162a1.526,1.526,0,0,1-.491-.335,1.218,1.218,0,0,1-.242-.334,1.568,1.568,0,0,1-.128-.384,2.615,2.615,0,0,1-.046-.432c0-.152-.005-.315-.005-.488s0-.335.005-.488a2.647,2.647,0,0,1,.046-.433,1.569,1.569,0,0,1,.128-.384,1.245,1.245,0,0,1,.242-.334A1.537,1.537,0,0,1,45,74.216a1.648,1.648,0,0,1,.652-.116,1.848,1.848,0,0,1,.551.081,1.342,1.342,0,0,1,.462.248,1.392,1.392,0,0,1,.343.419,1.838,1.838,0,0,1,.2.59H46.172a.756.756,0,0,0-.161-.305A.457.457,0,0,0,45.647,75a.549.549,0,0,0-.239.049.432.432,0,0,0-.159.124.574.574,0,0,0-.112.27,2.51,2.51,0,0,0-.031.287c-.009.117-.013.269-.013.458s0,.342.013.458a2.491,2.491,0,0,0,.031.286.714.714,0,0,0,.049.167.751.751,0,0,0,.063.1.432.432,0,0,0,.159.124.549.549,0,0,0,.239.049.457.457,0,0,0,.364-.134.75.75,0,0,0,.161-.305H47.2a1.824,1.824,0,0,1-.2.59,1.369,1.369,0,0,1-.8.668,1.848,1.848,0,0,1-.551.081A1.664,1.664,0,0,1,45,78.162Zm-9.342.089a2.344,2.344,0,0,1-.41-.086,1.595,1.595,0,0,1-.7-.429l.646-.647a.871.871,0,0,0,.415.226,2.071,2.071,0,0,0,.5.064c.393,0,.588-.123.588-.371a.343.343,0,0,0-.08-.242.458.458,0,0,0-.271-.109l-.5-.069a1.4,1.4,0,0,1-.824-.363,1.134,1.134,0,0,1-.283-.826,1.283,1.283,0,0,1,.1-.519,1.183,1.183,0,0,1,.3-.409,1.393,1.393,0,0,1,.469-.271,1.9,1.9,0,0,1,.63-.1,2.461,2.461,0,0,1,.782.113,1.536,1.536,0,0,1,.6.377l-.634.635a.7.7,0,0,0-.347-.2,2.041,2.041,0,0,0-.433-.04.63.63,0,0,0-.224.035.465.465,0,0,0-.154.089.371.371,0,0,0-.089.121.341.341,0,0,0-.029.136.323.323,0,0,0,.017.093.257.257,0,0,0,.064.1.408.408,0,0,0,.107.076.477.477,0,0,0,.175.046l.5.069a1.381,1.381,0,0,1,.808.34.891.891,0,0,1,.236.387,1.722,1.722,0,0,1,.069.513,1.172,1.172,0,0,1-.127.555,1.214,1.214,0,0,1-.343.406,1.5,1.5,0,0,1-.5.247,2.184,2.184,0,0,1-.611.085A3.613,3.613,0,0,1,35.653,78.251Zm39.3-.009V77.2h1.039v1.039Zm-3.307,0V74.135h2.793v.9H72.66v.687h1.523v.9H72.66v.721h1.782v.9Zm-3.525,0V74.135h1.524a1.673,1.673,0,0,1,.793.172,1.415,1.415,0,0,1,.54.52,1.107,1.107,0,0,1,.115.251,1.671,1.671,0,0,1,.06.288,3.172,3.172,0,0,1,.023.357c0,.133,0,.288,0,.465s0,.331,0,.464a3.172,3.172,0,0,1-.023.357,1.682,1.682,0,0,1-.06.289,1.125,1.125,0,0,1-.115.251,1.412,1.412,0,0,1-.54.519,1.673,1.673,0,0,1-.793.172Zm1.011-.9h.444a.614.614,0,0,0,.3-.064.524.524,0,0,0,.182-.167.387.387,0,0,0,.049-.092.746.746,0,0,0,.035-.15c.009-.066.015-.152.019-.26s.006-.247.006-.42,0-.313-.006-.422a2.561,2.561,0,0,0-.019-.257.743.743,0,0,0-.035-.148.581.581,0,0,0-.049-.1.524.524,0,0,0-.182-.167.624.624,0,0,0-.3-.064h-.444Zm-2.735.9V74.135h1.01v4.107Zm-1.57,0L64.1,76.713h-.339v1.528H62.753V74.135H64.38a1.5,1.5,0,0,1,.6.113,1.276,1.276,0,0,1,.707.717,1.371,1.371,0,0,1,.092.491,1.14,1.14,0,0,1-.061.38,1.227,1.227,0,0,1-.155.307,1.248,1.248,0,0,1-.214.23,1.113,1.113,0,0,1-.239.155L66,78.242Zm-1.067-2.376h.571a.416.416,0,1,0,0-.832h-.571Zm-4.668,2.376V76.569l-1.24-2.434h1.1l.646,1.477.64-1.477h1.1L60.1,76.569v1.673Zm-4.43,0v-.783l1.576-2.425H54.734v-.9h2.717v.785l-1.58,2.423h1.58v.9Zm-1.113,0-.2-.611H52.1l-.2.611h-2.21l-.727-1.528h-.339v1.528H47.615V74.135h1.627a1.508,1.508,0,0,1,.6.113,1.3,1.3,0,0,1,.438.3,1.264,1.264,0,0,1,.268.42,1.353,1.353,0,0,1,.093.491,1.14,1.14,0,0,1-.061.38,1.226,1.226,0,0,1-.155.307,1.248,1.248,0,0,1-.214.23,1.135,1.135,0,0,1-.239.155l.878,1.694,1.487-4.087h.774l1.494,4.107Zm-1.178-1.454h.706l-.353-1.1Zm-3.749-.923H49.2a.415.415,0,0,0,.323-.127.416.416,0,0,0-.323-.7h-.571ZM41.7,78.242l-.2-.611H40.241l-.2.611H38.989l1.494-4.107h.774l1.494,4.107Zm-1.177-1.454h.7l-.353-1.1Zm-7.311,1.454V74.135h1.011v4.107Zm-4.557,0V74.135h2.793v.9H29.66v.687h1.524v.9H29.66v.721h1.783v.9Zm-3.324,0V74.135H28.12v.9H26.338v.722H27.86v.9H26.338v1.586Zm-1.724,0V74.135h1.01v4.107Zm-3.208,0V74.135H21.4v3.208H23.13v.9Zm1.375-9.68,25.421-9.706a.3.3,0,0,1,.4.37l-.389,1.643a.3.3,0,0,0,.388.375l17.572-5.211a.3.3,0,0,1,.385.384l-.5,2.327a.3.3,0,0,0,.363.39c2.225-.5,11.3-2.586,13.372-3.51,3.5-1.558,4.425-5.284-.37-5.724-.263-.024-2-.244-2.469-.344a7.167,7.167,0,0,1-1.106-.241c-.149.126-.309.255-.484.385C71.6,51.746,69.3,52.891,67.8,52.2h0a2.46,2.46,0,0,1-1.39-2.2.057.057,0,0,0-.1-.031c-5.4,5.094-8.794,4.572-8.794,4.572-1.786,0-3.361-1.781-3.6-4.163a.057.057,0,0,0-.109-.016,20.1,20.1,0,0,1-3.118,3.512c-.025.026-.049.056-.074.08a14.51,14.51,0,0,1-1.846,1.524c-.083.059-.156.108-.218.149l-.066.044c-.113.075-.176.113-.176.113v0c-2.017,1.263-3.905,1.584-5.143,1.016,0,0-1.63-.556-1.609-3.128a3.843,3.843,0,0,1,.075-.65.058.058,0,0,0-.111-.032c-1.867,3.156-4.471,5.38-6.317,6.095a10.008,10.008,0,0,1-2.909.544h0A2.984,2.984,0,0,1,29.21,57.1c-1.152-4.819,5.068-14.476,3.379-16.12-1.021-.994-2.789-1.112-5.562,3.619-4.574,7.8-5.876,17.565-6.611,19.143a5.176,5.176,0,0,1-5.969,2.278,3.281,3.281,0,0,1-1.513-1.2c-.024-.036-.049-.074-.071-.111l-.007-.012a3.488,3.488,0,0,1-.23-.444c-1.09-2.5,3.955-11.04,6.509-16.484L21.281,43.7c1.235-2.481-.521-1.2-.545-1.178h0c-1.382,1.146-4.439,4.812-6.617,6.061a2.534,2.534,0,0,1-1.934.307,1.591,1.591,0,0,1-1.132-1.058h0a7.78,7.78,0,0,1-.166-2.943,2.582,2.582,0,0,1,2.152-2.151,20.453,20.453,0,0,0,7.422-3.793l0,0c1.693-1.426,2.932-2.593,4.962-2.516a2.668,2.668,0,0,1,1.557.5,1.333,1.333,0,0,1,.393.425,1.8,1.8,0,0,1,.273.578,3.966,3.966,0,0,1,.055.766c0,.167.289.3.442.231a11.276,11.276,0,0,0,1.011-.517c3.119-1.958,4.514-2.5,6.619-2.5.128,0,.251,0,.372.015h0a5.109,5.109,0,0,1,1.907.733c1.688,1.532.643,3.9-.255,6.089-2.191,5.351-3.963,10.407-2,11.291,1.731.781,5.789-4.3,7.222-8.171l.554-1.431c.509-1.413.961-4.3,1.663-5.8,1.391-2.979,2.869-3.248,4.289-3.4a3.5,3.5,0,0,1,1.157.066c1.006.16,1.967,1.17.534,4.108-.8,1.643-2.246,6.05-3.336,9.21-.205.74-1.333,4.973,1.8,2.575.365-.292.75-.625,1.146-.983a15.6,15.6,0,0,0,3.29-5.327c.12-.3.246-.611.375-.941.579-1.472.665-1.982,1.183-3.56.739-2.249,1.291-3.6,1.291-3.6a3.457,3.457,0,0,1,2.66-2.111c1.55-.317,3.046.052,3.413.763l.008.014a.748.748,0,0,1,.076.262A5.1,5.1,0,0,1,62.182,39a25.8,25.8,0,0,0-2.91,8.431c-.024.185-.045.367-.06.545.009.656.328,1.659,2.241,1.481a6.926,6.926,0,0,0,4.52-2.667,32.518,32.518,0,0,0,1.956-5.414q.134-.481.266-.926l0,0a22,22,0,0,1,1.256-3.635c1.226-2.624,2.527-2.861,3.778-2.993a3.087,3.087,0,0,1,1.019.057c.887.141,1.733,1.031.47,3.618A59.759,59.759,0,0,0,71.841,44.2c-.179.648-1.368,6.193,1.321,4.2a1.534,1.534,0,0,1-.444-1.272,2.075,2.075,0,0,1,2.272-1.949c1.778,0,1.619,1.422,1.619,1.422a2.837,2.837,0,0,1-.708,1.625,9.7,9.7,0,0,0,1.143.108c2.779.23,3.215.02,5.059.453a3.618,3.618,0,0,1,.834.3A4.077,4.077,0,0,1,85.4,53.4s-.946,5.3-12.694,8.674c0,0-13.782,4.538-15.978,5.072a.3.3,0,0,1-.369-.38l.491-2.507a.3.3,0,0,0-.373-.38l-15.8,3.948a.3.3,0,0,1-.376-.359l.284-1.719a.3.3,0,0,0-.358-.364L21.82,68.893a.2.2,0,0,1-.037,0C21.607,68.9,21.578,68.629,21.769,68.561ZM74.5,46.028c-.535.076-1.2.781-.163,1.591a3.464,3.464,0,0,0,.627-.786c.313-.555.012-.814-.351-.814A.8.8,0,0,0,74.5,46.028ZM0,26.56l.722-1.139,10.893,3.911L10.75,30.7l-2.306-.9L7.263,31.666l1.8,1.7-.867,1.367Zm3.1,1.19L6.13,30.61,7,29.243l-3.883-1.52ZM84.86,31.621l-1.211-1.9,9.523-6.071,1.287,2.019a2.626,2.626,0,0,1-.934,3.964l-4.453,2.84a3.588,3.588,0,0,1-1.9.649A2.754,2.754,0,0,1,84.86,31.621Zm.942-1.354.4.629c.487.762,1.049.817,1.865.3l4.587-2.926c.748-.477,1.015-1,.5-1.806l-.4-.629Zm-37.286-.434c.014-1.442,2.23-3.5,4.216-3.713a2.751,2.751,0,0,1,2.976,2.952c-.015,1.442-2.446,3.105-4.432,3.316a3.839,3.839,0,0,1-.4.022A2.285,2.285,0,0,1,48.516,29.833Zm33.7-1.905,2.669-4.289-.632-.734L80.6,26.054l-1.057-1.227L88.1,17.456l1.7,1.971c1.252,1.454,1.01,2.9-.648,4.326a2.881,2.881,0,0,1-3.05.786l-2.767,4.686Zm3.119-5.953.6.7c.734.852,1.33.57,2.183-.165s1.21-1.293.433-2.2L88,19.676ZM5.514,18.995,6.6,17.88l6.58,3,.023-.022L8.324,16.108l1.129-1.16,8.093,7.879-1.062,1.092L9.893,20.955l-.022.023,4.864,4.736-1.129,1.159Zm72.535,4.43,1.239-2.14L77.63,19.832l-1.956,1.513-1.218-1.065,9.335-6.839,1.015.888-5.54,10.16Zm.8-4.55,1.217,1.066,2.1-3.6-.024-.022Zm-67.531-5.49,1.248-1.031,7.187,8.708-1.247,1.03Zm60.964,5.472,2.843-6.868-.026-.016-4.927,5.562-1.29-.809L73.453,6.26l1.452.911-3.122,6.505.027.017,4.883-5.4,1.048.656-2.784,6.924.027.017,4.558-5.811,1.452.909-7.421,8.679Zm-52.93-.77L14.527,10.78l1.349-.891,4.739,7.173a1.012,1.012,0,1,0,1.668-1.1L17.544,8.788,18.895,7.9l4.825,7.3a2.617,2.617,0,1,1-4.368,2.885Zm46.454-2.794.506-5.027-.891-.379-1.89,4.434-1.49-.635L66.472,3.3l2.392,1.02c1.765.752,2.185,2.156,1.327,4.17A2.878,2.878,0,0,1,67.8,10.538l-.416,5.426Zm.176-6.719.846.361c1.036.44,1.445-.074,1.887-1.111s.516-1.694-.58-2.161l-.773-.329ZM24.168,5l1.608-.589L29,10.866l.03-.011L27.757,3.687l1.161-.426,3.761,6.444.03-.012L30.914,2.531l1.609-.589,2.3,11.183-1.431.524-3.68-6.456-.03.01,1.373,7.3-1.431.525Zm34.195,7.8a2.649,2.649,0,0,1-1.954-3.342l1.46-5.784a2.713,2.713,0,1,1,5.26,1.329l-1.46,5.785a2.62,2.62,0,0,1-2.6,2.1A2.879,2.879,0,0,1,58.362,12.8Zm1.075-8.73L57.977,9.86A1.1,1.1,0,1,0,60.1,10.4l1.461-5.784a1.046,1.046,0,0,0-.783-1.376,1.29,1.29,0,0,0-.316-.041A1.038,1.038,0,0,0,59.437,4.073ZM36.152,1.238l1.324-.26,4.648,10.6-1.588.312L39.6,9.6l-2.164.425v2.473l-1.588.311ZM37.416,4.3l.01,4.167,1.588-.311L37.447,4.3ZM50.363,11.4,51.636.175l4.792.545-.172,1.512-3.184-.36-.386,3.4,2.774.314L55.289,7.1l-2.774-.315-.544,4.792ZM42.9,6.8,40.183.473,41.891.339l1.647,4.374.031,0L44.515.133,46.223,0,44.518,6.673l.373,4.759-1.613.127Z" transform="translate(0 -0.001)" fill="#fff" stroke="rgba(0,0,0,0)" stroke-width="1"/>
    <g id="蒙版组_552" data-name="蒙版组 552" transform="translate(0 0)" clip-path="url(#clip-path)">
      <path id="路径_16577" data-name="路径 16577" d="M1410.3,1550.471c12.149-12.8,15.534-19.822,26.035-11.668s16.141,8.532,25.254-4.517,14.987-3.1,22.711,4.517,16.749-2.047,21-10.2v119.349h-95Z" transform="translate(-1410.297 -1426)" fill="#df001f"/>
    </g>
  </g>
</svg>
