<svg xmlns="http://www.w3.org/2000/svg" xmlns:xlink="http://www.w3.org/1999/xlink" width="16" height="16" viewBox="0 0 16 16"><defs><clipPath id="a"><circle cx="8" cy="8" r="8" transform="translate(16 707)" fill="#fff"/></clipPath></defs><g transform="translate(-16 -707)" clip-path="url(#a)"><g transform="translate(16 707)"><path d="M.016,8a8,8,0,1,0,8-8A8,8,0,0,0,.016,8Z" transform="translate(-0.016 -0.003)" fill="#de2910"/><path d="M6.139,5.18,6.91,7.455H9.4L7.383,8.935l.748,2.258L6.141,9.851,4.148,11.192,4.9,8.935,2.89,7.455H5.385L6.139,5.18Zm8.006,4.539.249.736h.81l-.657.481.244.731-.647-.433-.644.433.242-.731-.649-.481H13.9l.244-.736h0ZM13.6,6.356l.552.55.723-.356-.374.718.542.55-.769-.1-.387.675-.107-.761-.8-.143.725-.356L13.6,6.356ZM10.965,4.429l.733.265.5-.631-.033.812.72.267-.741.232-.064.774-.42-.644-.781.209.507-.631-.425-.652Zm0,8.006.733.267.5-.631-.033.812.72.267-.741.232-.064.776-.42-.647-.781.206.507-.631-.425-.652Z" transform="translate(-0.8 -1.11)" fill="#ffdc00"/></g></g></svg>