<svg xmlns="http://www.w3.org/2000/svg" width="24.386" height="20" viewBox="0 0 24.386 20">
  <g id="组_8254" data-name="组 8254" transform="translate(-63.378 -41.122)">
    <g id="组_2" data-name="组 2" transform="translate(63.378 41.122)">
      <path id="路径_1" data-name="路径 1" d="M87.542,46.72l-2.759-4.778a1.654,1.654,0,0,0-2.86,1.661l0,.009.6,1.041a.757.757,0,0,1-.663,1.122H69.276a.757.757,0,0,1-.665-1.118l.6-1.043.005-.01a1.654,1.654,0,0,0-1.43-2.481,1.661,1.661,0,0,0-1.43.821L63.6,46.72A1.654,1.654,0,0,0,65.03,49.2h.619a1,1,0,0,1,.826.545l5.291,9.141,0,.007a4.355,4.355,0,0,0,7.6,0l.006-.01,5.291-9.142a1,1,0,0,1,.826-.545h.619a1.654,1.654,0,0,0,1.431-2.481ZM80.162,50.7l-3.753,6.5a.989.989,0,0,1-.833.5h-.007a.989.989,0,0,1-.835-.5L70.98,50.7a.994.994,0,0,1,.861-1.494H79.3a.994.994,0,0,1,.862,1.494Z" transform="translate(-63.378 -41.122)" fill="#fff"/>
    </g>
  </g>
</svg>
