<svg xmlns="http://www.w3.org/2000/svg" width="18" height="18"><path data-name="路径 16528" d="M9 0a9 9 0 109 9 9 9 0 00-9-9zm0 4.5a10 10 0 01-1.732-.151C7.794 2.236 8.586 1.125 9 1.125s1.205 1.111 1.732 3.224A10.207 10.207 0 019 4.5zm2.827-.41a9.858 9.858 0 00-1.067-2.76 7.863 7.863 0 013.4 1.73 9.538 9.538 0 01-2.333 1.03zm-5.653 0a9.6 9.6 0 01-2.326-1.031 7.852 7.852 0 013.393-1.728A9.88 9.88 0 006.173 4.09zm6.192 4.347a21.667 21.667 0 00-.309-3.242 10.637 10.637 0 002.909-1.322 7.833 7.833 0 011.882 4.564zm-11.212 0a7.841 7.841 0 011.878-4.562 10.626 10.626 0 002.913 1.318 21.72 21.72 0 00-.309 3.244zm5.607 0A20.343 20.343 0 017.04 5.45a11.149 11.149 0 003.921 0 20.621 20.621 0 01.279 2.985zm8.2 5.689a10.637 10.637 0 00-2.905-1.326 21.719 21.719 0 00.309-3.242h4.482a7.833 7.833 0 01-1.882 4.569zM7.039 12.55a20.623 20.623 0 01-.279-2.987h4.478a20.068 20.068 0 01-.279 2.985 11.138 11.138 0 00-3.919 0zm-4.006 1.575a7.828 7.828 0 01-1.878-4.562h4.482a21.722 21.722 0 00.309 3.244 10.626 10.626 0 00-2.913 1.318zM9 16.875c-.414 0-1.205-1.111-1.732-3.224a10.027 10.027 0 013.463 0c-.526 2.113-1.317 3.224-1.731 3.224zm1.76-.2a9.857 9.857 0 001.067-2.76 9.577 9.577 0 012.328 1.029 7.845 7.845 0 01-3.395 1.726zm-3.52 0a7.852 7.852 0 01-3.393-1.728 9.456 9.456 0 012.326-1.031A9.93 9.93 0 007.24 16.67z" fill="#fff"/></svg>