<svg xmlns="http://www.w3.org/2000/svg" width="92.625" height="23.073" viewBox="0 0 92.625 23.073">
  <g id="组_9802" data-name="组 9802" transform="translate(0 -0.027)">
    <path id="路径_16666" data-name="路径 16666" d="M37.517.02H30.335a3.577,3.577,0,0,0-2.762,1.4l-6.981,8.91a.3.3,0,0,1-.513,0L15.6,1.422A2.585,2.585,0,0,0,13.233.02H6.052A3.629,3.629,0,0,0,2.573,3.071L0,21.374H7.626L9.415,8.651c.042-.3.455-.421.584-.165l4.239,8.436a2.585,2.585,0,0,0,2.369,1.4h5.21a3.582,3.582,0,0,0,2.764-1.4L31.19,8.486c.2-.256.581-.139.539.165l-1.79,12.723h7.627l2.573-18.3A2.59,2.59,0,0,0,37.517.02" transform="translate(0 0.008)"/>
    <path id="路径_16667" data-name="路径 16667" d="M62.614.032H37.942a7.267,7.267,0,0,0-6.955,6.1L29.7,15.285a5.173,5.173,0,0,0,5.247,6.1H43.23l.247.928a1.044,1.044,0,0,0,1.008.774h8.957a1.042,1.042,0,0,0,1.007-1.311l-.1-.39h5.278a7.293,7.293,0,0,0,6.955-6.1l1.281-9.152a5.187,5.187,0,0,0-5.247-6.1M60.4,5.517l-.045.311-1.314,8.689h0L59,14.756l-.2,1.379a2.335,2.335,0,0,1-.8,1.334,2.41,2.41,0,0,1-1.573.586H53.458l-.44-1.65a1.044,1.044,0,0,0-1.008-.774H43.053a1.042,1.042,0,0,0-1.007,1.311l.3,1.113H39.159a2.072,2.072,0,0,1-1.474-.672,1.862,1.862,0,0,1-.458-1.594L38.833,5.177A2.346,2.346,0,0,1,39.646,3.8,2.406,2.406,0,0,1,41.2,3.218H58.152l.188.007a2.093,2.093,0,0,1,1.6.683,1.857,1.857,0,0,1,.46,1.609" transform="translate(12.28 0.013)"/>
    <path id="路径_16668" data-name="路径 16668" d="M67.266,4.68,67.918.02H60.292l-.653,4.66Z" transform="translate(24.707 0.008)"/>
    <path id="路径_16669" data-name="路径 16669" d="M60.026,4.822l-2.04,14.563h7.627l2.04-14.563Z" transform="translate(24.023 1.997)"/>
  </g>
</svg>
