<svg xmlns="http://www.w3.org/2000/svg" width="20" height="12.992" viewBox="0 0 26.768 12.992">
  <path id="路径_5058" data-name="路径 5058" d="M4.256-3.78q-.532.364-.812.532L2.618-4.312V1.344H1.344V-7.742H4.256A10.31,10.31,0,0,0,3.6-9.184H.756v-1.274h5.5a7.877,7.877,0,0,0-.406-.938l1.47-.224q.112.28.406,1.162h5.516v1.274H10.3q-.35.826-.686,1.442h3.01V-.266q0,1.638-1.372,1.638H9.828L9.492.168,10.836.21q.518,0,.518-.756v-6.02H2.618v2.2a10.7,10.7,0,0,0,2.8-2.17l.938.826A12.269,12.269,0,0,1,4.382-3.878H9.73v3.7H4.256ZM8.442-1.358v-1.33h-2.9v1.33Zm.042-5.194a20.482,20.482,0,0,1,2.842,2.3l-.994.98A16.927,16.927,0,0,0,7.588-5.7Zm-.322-1.19a15.934,15.934,0,0,0,.686-1.442H5.054a12.576,12.576,0,0,1,.56,1.442Zm6.412-.238h1.148v-3.43H17.01v3.43h1.134v1.26H17.01v3.85l1.022-.588V-2.17a19.036,19.036,0,0,1-3.3,1.554L14.406-1.89A11.949,11.949,0,0,0,15.722-2.3V-6.72H14.574Zm5.432,2.6A11.725,11.725,0,0,1,18.06,1.288L17.094.434a10.325,10.325,0,0,0,1.638-5.922V-9.45h4.032q-.028-.644-.028-2.016h1.232q0,1.092.042,2.016h3.038v1.218h-3A28.687,28.687,0,0,0,24.43-4.34l.084.42A16.484,16.484,0,0,0,25.55-7.1l1.078.462a16.984,16.984,0,0,1-1.68,4.41,4.632,4.632,0,0,0,.378.966q.476.938.7.938.2,0,.406-1.876l1.092.616q-.448,2.87-1.26,2.87-.756,0-1.554-1.26a6.405,6.405,0,0,1-.56-1.05,8.371,8.371,0,0,1-2.632,2.268L20.72.224a7.722,7.722,0,0,0,2.954-2.646Q23.52-2.9,23.31-3.864a27.429,27.429,0,0,1-.5-4.368h-2.8V-6.5h2.366a18.813,18.813,0,0,1-.336,4.76,1.264,1.264,0,0,1-1.176.868h-.938L19.6-1.946h.966q.378-.042.49-.644a25.022,25.022,0,0,0,.126-2.786Zm5.642-6.174A8.474,8.474,0,0,1,26.572-9.9l-.952.42a11.308,11.308,0,0,0-.938-1.694Z" transform="translate(-0.756 11.62)" fill="#fff"/>
</svg>
