<svg xmlns="http://www.w3.org/2000/svg" width="76.568" height="19.999" viewBox="0 0 76.568 19.999">
  <g id="组_322" data-name="组 322" transform="translate(-14503 15890.377)">
    <path id="联合_372" data-name="联合 372" d="M12.867,19.984a.9.9,0,0,1-.874-.672l-.214-.8H4.6A4.482,4.482,0,0,1,.056,13.22L1.167,5.288A6.3,6.3,0,0,1,7.194,0H28.58a4.5,4.5,0,0,1,4.547,5.288L32.016,13.22a6.32,6.32,0,0,1-6.029,5.288H21.413l.09.339a.9.9,0,0,1-.873,1.137ZM23.211,15.62a2.086,2.086,0,0,0,1.364-.506,2.032,2.032,0,0,0,.7-1.157l.18-1.2.03-.207h0l1.139-7.53.039-.271a1.612,1.612,0,0,0-.4-1.394,1.813,1.813,0,0,0-1.389-.593l-.164-.006H10.018a2.091,2.091,0,0,0-1.347.506,2.034,2.034,0,0,0-.7,1.192l-1.391,9.2a1.612,1.612,0,0,0,.4,1.382,1.788,1.788,0,0,0,1.277.581h2.757l-.256-.963a.9.9,0,0,1,.873-1.137h7.763a.9.9,0,0,1,.874.672l.381,1.43Z" transform="translate(14535.619 -15890.362)" fill="#333"/>
    <path id="Poster_projects_collection" data-name="Poster projects collection" d="M99.017,4.039,99.582,0h-6.61l-.566,4.039Z" transform="translate(14479.986 -15890.377)" fill="#333"/>
    <path id="Poster_projects_collection-2" data-name="Poster projects collection" d="M91.476,7.839,89.709,20.461h6.61L98.087,7.839Z" transform="translate(14480.658 -15892.329)" fill="#333"/>
    <path id="Poster_projects_collection-3" data-name="Poster projects collection" d="M8.114,4.685h22.33L31.1,0H7.627A5.986,5.986,0,0,0,1.893,5.026L1.688,6.49A4.479,4.479,0,0,0,2.7,10.114,4.4,4.4,0,0,0,6.081,11.6h17.3a.533.533,0,0,1,.413.177.549.549,0,0,1,.119.447l-.126.9a.85.85,0,0,1-.8.705H.658L0,18.509H23.476a5.987,5.987,0,0,0,5.733-5.025l.205-1.465a4.477,4.477,0,0,0-1.008-3.624A4.4,4.4,0,0,0,25.02,6.912H7.72a.532.532,0,0,1-.413-.177.548.548,0,0,1-.119-.447l.126-.9a.847.847,0,0,1,.8-.7" transform="translate(14503 -15890.377)" fill="#333"/>
  </g>
</svg>
