<svg xmlns="http://www.w3.org/2000/svg" width="25" height="10" viewBox="0 0 39.941 10.136">
  <path id="路径_5057" data-name="路径 5057" d="M4.13-10.052a5.536,5.536,0,0,1,1.806.266,3.781,3.781,0,0,1,1.414.9L6.118-7.672a2.075,2.075,0,0,0-.882-.546,4.166,4.166,0,0,0-1.162-.14,1.6,1.6,0,0,0-1.162.371,1.2,1.2,0,0,0-.378.889.943.943,0,0,0,.294.714,1.407,1.407,0,0,0,.371.238,1.922,1.922,0,0,0,.539.14l1.19.182a4.9,4.9,0,0,1,1.134.28,2.3,2.3,0,0,1,.77.5,2.2,2.2,0,0,1,.588.9A3.645,3.645,0,0,1,7.6-2.94a2.843,2.843,0,0,1-.28,1.288,2.72,2.72,0,0,1-.777.945,3.567,3.567,0,0,1-1.176.588,5.085,5.085,0,0,1-1.463.2A6.577,6.577,0,0,1,1.883-.2,3.961,3.961,0,0,1,.266-1.232l1.26-1.26a2.548,2.548,0,0,0,1.092.658,4.572,4.572,0,0,0,1.3.182,2.273,2.273,0,0,0,1.33-.322A1.069,1.069,0,0,0,5.7-2.9a1.116,1.116,0,0,0-.308-.826,1.047,1.047,0,0,0-.343-.21,3,3,0,0,0-.553-.126L3.3-4.242a3.494,3.494,0,0,1-1.932-.826,2.591,2.591,0,0,1-.714-1.96A3.067,3.067,0,0,1,.9-8.253,2.676,2.676,0,0,1,1.582-9.2a3.2,3.2,0,0,1,1.092-.623A4.416,4.416,0,0,1,4.13-10.052Zm11.2,1.82h-2.6V0H10.78V-8.232h-2.6V-9.968H15.33Zm4.326-1.82a3.853,3.853,0,0,1,1.512.273A3.761,3.761,0,0,1,22.33-9a2.836,2.836,0,0,1,.581.77,3.374,3.374,0,0,1,.294.889,7.162,7.162,0,0,1,.112,1.064q.021.581.021,1.3t-.021,1.3A7.162,7.162,0,0,1,23.2-2.625a3.374,3.374,0,0,1-.294.889,2.836,2.836,0,0,1-.581.77,3.761,3.761,0,0,1-1.162.777,3.853,3.853,0,0,1-1.512.273,3.853,3.853,0,0,1-1.512-.273,3.761,3.761,0,0,1-1.162-.777A3.042,3.042,0,0,1,16.4-1.75a3.374,3.374,0,0,1-.294-.889A7.131,7.131,0,0,1,15.995-3.7q-.021-.574-.021-1.288t.021-1.288a7.131,7.131,0,0,1,.112-1.057,3.374,3.374,0,0,1,.294-.889A3.042,3.042,0,0,1,16.982-9a3.761,3.761,0,0,1,1.162-.777A3.853,3.853,0,0,1,19.656-10.052Zm0,1.736a1.687,1.687,0,0,0-.721.147,1.58,1.58,0,0,0-.525.385,1.607,1.607,0,0,0-.238.343,1.789,1.789,0,0,0-.154.5,5.958,5.958,0,0,0-.077.777q-.021.469-.021,1.183T17.941-3.8a5.751,5.751,0,0,0,.077.77,1.785,1.785,0,0,0,.154.49,1.607,1.607,0,0,0,.238.343,1.665,1.665,0,0,0,.525.392,1.621,1.621,0,0,0,.721.154,1.621,1.621,0,0,0,.721-.154A1.665,1.665,0,0,0,20.9-2.2a1.607,1.607,0,0,0,.238-.343,1.785,1.785,0,0,0,.154-.49,5.751,5.751,0,0,0,.077-.77q.021-.469.021-1.183t-.021-1.183a5.958,5.958,0,0,0-.077-.777,1.789,1.789,0,0,0-.154-.5,1.607,1.607,0,0,0-.238-.343,1.58,1.58,0,0,0-.525-.385A1.687,1.687,0,0,0,19.656-8.316Zm9.156-1.652a3.615,3.615,0,0,1,1.372.245,3.029,3.029,0,0,1,1.015.658,2.793,2.793,0,0,1,.63.966,3.209,3.209,0,0,1,.217,1.183,2.934,2.934,0,0,1-.147.959,2.551,2.551,0,0,1-.4.749,2.718,2.718,0,0,1-.581.553,2.791,2.791,0,0,1-.693.357L32.452,0H30.2L28.252-3.976h-1.4V0H24.906V-9.968Zm-1.96,1.736v2.618H28.7a1.411,1.411,0,0,0,1.022-.364A1.262,1.262,0,0,0,30.1-6.93a1.239,1.239,0,0,0-.378-.945A1.428,1.428,0,0,0,28.7-8.232Zm13.356,0h-4.62v2.338h3.948v1.736H35.588v2.422h4.62V0H33.642V-9.968h6.566Z" transform="translate(-0.266 10.052)" fill="#fff"/>
</svg>
