<svg xmlns="http://www.w3.org/2000/svg" width="18" height="18" viewBox="0 0 18 18">
  <path id="gouwudai" d="M137.4,87.551a1.765,1.765,0,0,1,1.221.483,1.64,1.64,0,0,1,.371.524,1.556,1.556,0,0,1,.136.64.353.353,0,0,0,0,.054l.859,12.31a1.536,1.536,0,0,1-.136.615,1.641,1.641,0,0,1-.371.523,1.733,1.733,0,0,1-.55.354,1.774,1.774,0,0,1-.672.13H126.167a1.774,1.774,0,0,1-.672-.13,1.734,1.734,0,0,1-.55-.354,1.639,1.639,0,0,1-.371-.523,1.538,1.538,0,0,1-.136-.615l.861-12.313c0-.019,0-.038,0-.054a1.554,1.554,0,0,1,.136-.64,1.644,1.644,0,0,1,.371-.524,1.736,1.736,0,0,1,.55-.354,1.78,1.78,0,0,1,.672-.13H137.4ZM132.214,94.7a5.074,5.074,0,0,1-3.521-1.389,4.6,4.6,0,0,1-1.458-3.353c0-.006,0-.011,0-.017v0l1.224,0s0,.009,0,.014a3.759,3.759,0,0,0,7.509,0s0-.009,0-.013l1.225-.005v0c0,.007,0,.013,0,.019a4.6,4.6,0,0,1-1.458,3.353,5.075,5.075,0,0,1-3.521,1.389m5.4-8.338h-10.8a2.638,2.638,0,0,0-2.7,2.571l-.9,12.857a2.638,2.638,0,0,0,2.7,2.572h12.6a2.637,2.637,0,0,0,2.7-2.572l-.9-12.857a2.638,2.638,0,0,0-2.7-2.571h0" transform="translate(-123.214 -86.366)" fill="#fff"/>
</svg>
