<svg xmlns="http://www.w3.org/2000/svg" width="66.394" height="41.397" viewBox="0 0 66.394 41.397">
  <g id="组_12892" data-name="组 12892" transform="matrix(0.996, 0.087, -0.087, 0.996, -645.437, -472.056)">
    <g id="组_12878" data-name="组 12878" transform="translate(687.249 413.733)">
      <g id="组_12879" data-name="组 12879" transform="translate(0 0)">
        <path id="路径_17296" data-name="路径 17296" d="M77.257,5.907,33.631,16.747l1.131-5.909-13.8,11-7.2,5.739L32.4,23.166,28.809,41.907,72.868,30.158Z" transform="translate(-13.759 -5.907)" fill="#df001f"/>
      </g>
    </g>
    <path id="路径_17307" data-name="路径 17307" d="M47.653,41.121l-1.858.5,1.375-4.352,1.858-.5Zm2.261-7.167.121-.641-2.8.75.414-2.1,1.31-.351-.151-1.154,2.6-.7.151,1.154.723-.194.632-1.364,2.6-.7-.631,1.364,1.31-.351-.413,2.1-2.777.745-.121.641,2.406-.645-.394,2.1-2.406.645-.872,4.573a2.492,2.492,0,0,1-.608,1.159,2.16,2.16,0,0,1-1.035.665l-2.562.687,1.179-1.511.924-4.776-2.424.65.394-2.1Zm1.256-6.521.119-.619.123-.631,2.97-.806-.24,1.259,2.4-.645-.414,2.1-7.8,2.092.413-2.1Zm1.554,8.345,1.857-.5-.24,4.048-1.858.5Zm4.762-10.039,7.1-3.1-.414,2.1-4.216,1.843-.42,2.188L64,27.577l-.414,2.1-.743.2-1.681,8.773-2.8.75,1.68-8.773-.919.246-1.68,8.773-2.777.745Z" transform="translate(662.237 401.221)" fill="#fff"/>
    <path id="路径_17308" data-name="路径 17308" d="M90.8,24.1,89.36,31.658l-7.431,1.993,1.443-7.556Zm-4.118-6.058,11.878-3.192-1.289,6.718-11.89,3.188Zm-.735,9.35L85.3,30.757l1.486-.4L87.437,27Zm8.022-6.93.481-2.519-4.459,1.2-.481,2.519Zm5.006,1.446-1.443,7.556L90.1,31.459,91.546,23.9ZM94.125,25.2l-.654,3.361,1.486-.4.655-3.361Z" transform="translate(644.684 405.058)" fill="#fff"/>
  </g>
</svg>
